<svg width="256" height="256" viewBox="0 0 256 256" fill="none" xmlns="http://www.w3.org/2000/svg">
<path d="M89.2412 163.452C79.8977 163.452 71.5923 162.05 64.3252 159.247C57.1618 156.444 51.0885 152.499 46.1053 147.412C41.1221 142.325 37.3328 136.304 34.7374 129.348C32.2458 122.392 31 114.814 31 106.612C31 98.3068 32.4015 90.7282 35.2046 83.8763C38.1114 76.9205 42.2641 70.8992 47.6626 65.8121C53.0611 60.7251 59.4458 56.7801 66.8168 53.977C74.2916 51.174 82.5969 49.7725 91.7328 49.7725C98.0656 49.7725 103.931 50.5511 109.33 52.1083C114.832 53.6656 119.763 55.7938 124.124 58.4931C128.588 61.0885 132.429 64.0473 135.647 67.3694L115.714 88.548C113.638 86.5755 111.406 84.8625 109.018 83.4091C106.63 81.8518 103.983 80.6579 101.076 79.8274C98.1694 78.8931 94.8992 78.4259 91.2656 78.4259C87.5282 78.4259 84.1023 79.1526 80.9878 80.606C77.8733 81.9557 75.174 83.8763 72.8901 86.3679C70.6061 88.8595 68.7893 91.8702 67.4397 95.3999C66.1939 98.8259 65.571 102.563 65.571 106.612C65.571 110.661 66.2458 114.45 67.5954 117.98C68.945 121.406 70.8137 124.365 73.2015 126.856C75.5893 129.348 78.4442 131.321 81.7664 132.774C85.0885 134.124 88.7221 134.798 92.6671 134.798C95.3664 134.798 97.8061 134.383 99.9862 133.553C102.27 132.618 104.191 131.424 105.748 129.971C107.409 128.414 108.707 126.597 109.641 124.521C110.576 122.34 111.043 120.004 111.043 117.513V112.997L115.403 120.472H87.6839L87.6839 97.2088L141 97C141.104 98.142 141.461 99.8121 141.565 102.408C141.772 105.003 141.876 107.598 141.876 110.194C141.98 112.685 142.032 114.398 142.032 115.333C142.032 122.288 140.734 128.725 138.139 134.643C135.543 140.56 131.858 145.647 127.082 149.904C122.411 154.16 116.856 157.482 110.42 159.87C103.983 162.258 96.9236 163.452 89.2412 163.452Z" fill="#D8E3EC"/>
<path d="M112.512 206.228V97.1231L141 97L181.187 161.846L157.673 161.69L197.85 97.22H225.88V206.228H193.489V180.221C193.489 170.878 193.697 162.469 194.112 154.994C194.631 147.519 195.462 140.096 196.604 132.725L200.341 142.536L174.024 183.336H163.746L137.896 142.536L141.789 132.725C142.931 139.681 143.709 146.844 144.125 154.215C144.644 161.483 144.903 170.151 144.903 180.221V206.228H112.512Z" fill="#D8E3EC"/>
</svg>
